<?xml version="1.0" standalone="no"?>
<!DOCTYPE svg PUBLIC "-//W3C//DTD SVG 20010904//EN"
 "http://www.w3.org/TR/2001/REC-SVG-20010904/DTD/svg10.dtd">
<svg version="1.0" xmlns="http://www.w3.org/2000/svg"
 width="100.000000pt" height="100.000000pt" viewBox="0 0 500.000000 500.000000"
 preserveAspectRatio="xMidYMid meet">

<g transform="translate(0.000000,500.000000) scale(0.100000,-0.100000)"
fill="#F0531C" stroke="none">
<path d="M1609 4525 c-111 -15 -409 -86 -409 -96 0 -7 67 -48 245 -149 541
-308 914 -698 1184 -1239 32 -64 80 -172 106 -241 46 -121 120 -390 127 -460
l3 -35 -60 -6 c-404 -44 -902 91 -1375 370 -355 211 -658 458 -1046 854 -270
275 -240 275 -250 -1 -21 -579 161 -1100 551 -1577 155 -189 413 -417 618
-545 37 -23 67 -44 67 -45 0 -7 -224 -56 -326 -72 -136 -20 -477 -23 -621 -5
-113 14 -256 50 -347 87 -33 13 -62 23 -64 21 -6 -7 88 -167 141 -241 198
-276 486 -481 833 -594 796 -258 1577 7 2282 774 486 528 1141 1206 1467 1518
138 131 250 244 250 250 0 15 -176 121 -260 157 -236 98 -502 68 -738 -84 -51
-32 -58 -34 -64 -19 -178 498 -552 911 -1052 1163 -185 92 -407 164 -636 206
-123 22 -495 28 -626 9z m430 -175 c693 -54 1322 -466 1617 -1060 41 -82 114
-265 114 -285 0 -2 -20 -27 -45 -56 -24 -28 -83 -108 -131 -176 -104 -151
-200 -255 -272 -296 l-54 -30 6 -51 c3 -28 8 -81 12 -118 l6 -68 30 18 c113
66 219 175 406 417 189 245 286 335 443 410 145 69 287 81 437 36 39 -12 72
-23 72 -25 0 -2 -113 -116 -251 -253 -271 -267 -773 -788 -1119 -1160 -118
-127 -216 -230 -218 -228 -2 1 2 79 9 172 26 368 -32 791 -161 1183 -228 693
-670 1264 -1185 1533 l-60 32 55 6 c89 9 157 9 289 -1z m-1560 -1188 c692
-655 1299 -996 1901 -1068 103 -12 180 -15 326 -10 176 6 192 5 198 -11 13
-34 19 -476 7 -550 -25 -163 -91 -260 -204 -302 -108 -39 -351 -24 -604 39
-643 160 -1228 618 -1537 1201 -126 237 -200 470 -236 742 -12 92 -12 97 -4
97 3 0 72 -62 153 -138z m1252 -1981 c211 -85 435 -141 639 -161 63 -6 144
-15 180 -18 l65 -7 -95 -59 c-410 -256 -823 -343 -1226 -261 -208 43 -482 162
-689 300 -62 42 -117 81 -123 88 -8 9 42 12 236 12 190 0 273 4 362 18 128 21
338 73 445 111 39 13 73 25 76 25 4 1 62 -21 130 -48z"/>
</g>
</svg>
