<?xml version="1.0" standalone="no"?>
<!DOCTYPE svg PUBLIC "-//W3C//DTD SVG 20010904//EN"
 "http://www.w3.org/TR/2001/REC-SVG-20010904/DTD/svg10.dtd">
<svg version="1.0" xmlns="http://www.w3.org/2000/svg"
 width="1280.000000pt" height="720.000000pt" viewBox="0 0 1280.000000 720.000000"
 preserveAspectRatio="xMidYMid meet">

<g transform="translate(0.000000,720.000000) scale(0.100000,-0.100000)"
fill="#F0531C" stroke="none">
<path d="M7251 4944 c-65 -33 -116 -99 -131 -171 -14 -63 -6 -113 28 -176 76
-143 273 -172 395 -58 52 47 72 98 72 181 0 87 -22 137 -80 188 -78 69 -189
83 -284 36z"/>
<path d="M9975 4369 c-74 -18 -145 -84 -174 -162 -35 -92 6 -225 86 -282 48
-34 48 -30 -1 -140 -65 -149 -71 -200 -71 -655 0 -464 1 -468 81 -539 112 -98
274 -64 347 73 21 40 22 51 27 466 6 472 3 454 78 568 43 66 100 115 177 153
245 120 529 2 632 -261 15 -39 18 -98 23 -470 l5 -425 27 -46 c50 -84 158
-133 244 -110 62 17 120 64 149 121 l25 49 0 413 c0 366 -2 423 -19 505 -57
277 -240 507 -502 633 -102 49 -163 65 -297 81 -158 19 -327 -10 -476 -82
l-61 -30 -15 23 c-30 48 -94 99 -144 113 -55 17 -82 17 -141 4z"/>
<path d="M1905 4336 c-205 -36 -373 -124 -511 -268 -109 -113 -178 -237 -226
-405 -19 -66 -23 -100 -22 -228 1 -132 4 -161 28 -238 108 -358 377 -593 749
-654 86 -15 115 -15 210 -4 115 12 221 42 309 87 l52 26 20 -28 c56 -78 125
-115 215 -115 102 -1 191 56 232 146 26 56 25 156 -2 211 -19 41 -82 107 -110
116 -10 3 -6 21 19 76 177 384 75 826 -253 1088 -198 159 -468 231 -710 190z
m333 -482 c99 -48 177 -124 222 -219 58 -122 53 -298 -12 -412 -77 -135 -194
-214 -343 -233 -273 -34 -516 182 -515 458 1 198 166 400 363 442 23 5 79 7
125 5 70 -3 95 -10 160 -41z"/>
<path d="M3916 4340 c-198 -32 -361 -110 -504 -245 -116 -108 -209 -266 -253
-430 -32 -117 -32 -327 -1 -445 87 -332 347 -586 682 -665 93 -22 414 -33 476
-16 170 46 230 253 108 375 -55 55 -95 66 -244 66 -256 1 -353 31 -466 144
-35 35 -64 69 -64 75 0 7 180 11 563 13 554 3 563 3 602 25 116 62 152 163
121 340 -54 315 -239 559 -522 689 -139 65 -354 96 -498 74z m311 -485 c55
-26 92 -52 139 -100 35 -36 64 -70 64 -75 0 -6 -139 -10 -390 -10 -278 0 -390
3 -390 11 0 23 136 146 190 172 76 37 130 47 228 41 68 -3 98 -11 159 -39z"/>
<path d="M5249 4334 c-65 -20 -125 -82 -145 -149 -12 -45 -14 -114 -12 -427 3
-361 4 -374 25 -413 12 -22 192 -209 400 -416 377 -376 378 -377 434 -389 48
-11 64 -10 115 5 58 17 65 23 431 388 204 205 379 388 390 407 16 32 18 68 21
425 3 425 2 438 -55 506 -67 79 -190 98 -278 44 -27 -17 -63 -50 -80 -74 l-30
-43 -3 -332 -3 -332 -229 -229 -230 -230 -224 224 -225 224 -3 326 c-3 295 -5
330 -22 364 -26 53 -97 112 -151 126 -55 14 -68 13 -126 -5z"/>
<path d="M7297 4335 c-58 -22 -94 -52 -124 -103 l-28 -47 0 -745 0 -745 27
-46 c79 -134 265 -153 363 -37 57 67 55 38 55 828 0 798 2 770 -58 833 -60 63
-162 90 -235 62z"/>
<path d="M8555 4335 c-339 -54 -630 -313 -725 -645 -27 -94 -37 -294 -21 -398
91 -579 734 -924 1266 -678 566 262 716 991 296 1438 -154 164 -334 258 -554
287 -97 14 -160 13 -262 -4z m297 -460 c61 -21 157 -89 203 -144 201 -243 100
-609 -200 -720 -83 -31 -208 -32 -299 -1 -120 40 -213 127 -274 257 -24 53
-27 69 -27 173 0 112 1 117 37 193 62 130 185 229 318 257 60 12 184 5 242
-15z"/>
</g>
</svg>
